<?xml version="1.0" encoding="UTF-8"?>
<svg version="1.1" xmlns="http://www.w3.org/2000/svg" width="512" height="512">
<path d="M0 0 C1.30582031 -0.00257812 2.61164063 -0.00515625 3.95703125 -0.0078125 C4.97095947 -0.00152832 4.97095947 -0.00152832 6.00537109 0.00488281 C8.05726947 0.01555715 10.10828545 0.00498401 12.16015625 -0.0078125 C13.46855469 -0.00523438 14.77695313 -0.00265625 16.125 0 C17.90753174 0.00338379 17.90753174 0.00338379 19.72607422 0.00683594 C23.1953125 0.265625 23.1953125 0.265625 26.88720703 1.40722656 C30.75450597 2.41072642 30.87109129 1.94633402 34.1953125 0.265625 C36.60881126 0.01262534 36.60881126 0.01262534 39.35595512 0.00835609 C40.4052378 0.0019072 41.45452047 -0.00454169 42.53559959 -0.011186 C43.68713999 -0.0080888 44.8386804 -0.0049916 46.02511597 -0.00180054 C47.24936598 -0.00633165 48.47361599 -0.01086276 49.73496449 -0.01553118 C53.13488554 -0.0260151 56.53459535 -0.02749871 59.93451762 -0.02514243 C63.6005968 -0.0247347 67.26664429 -0.03576917 70.93270874 -0.04525757 C78.11578728 -0.06187787 85.29883301 -0.06736757 92.48192917 -0.06848232 C98.31988833 -0.06943228 104.15783665 -0.07353994 109.99579239 -0.07988358 C126.54302984 -0.09749853 143.09024134 -0.10672201 159.63748823 -0.10522263 C160.52974895 -0.10514272 161.42200967 -0.1050628 162.34130859 -0.10498047 C163.23465716 -0.10489871 164.12800572 -0.10481695 165.04842545 -0.10473271 C179.52918171 -0.10391966 194.00983398 -0.1230614 208.49056016 -0.1512572 C223.35490631 -0.17997188 238.21920172 -0.19379829 253.08357632 -0.19206965 C261.43056765 -0.19140527 269.77744998 -0.19691839 278.12441635 -0.21842575 C285.23075745 -0.23661892 292.33694011 -0.24100028 299.44329439 -0.2274069 C303.06940357 -0.22086783 306.69520864 -0.22079348 310.32128906 -0.2381134 C314.25151487 -0.2566931 318.18129445 -0.24431406 322.11154175 -0.22885132 C323.83216019 -0.24428201 323.83216019 -0.24428201 325.5875386 -0.26002443 C331.77723001 -0.20603642 335.50734094 0.08428686 340.1953125 4.265625 C344.77616923 9.38449142 344.75018192 13.77814232 344.64941406 20.31005859 C344.64999817 21.30579895 344.65058228 22.30153931 344.65118408 23.32745361 C344.64840553 26.60668237 344.61732339 29.88499325 344.5859375 33.1640625 C344.57847432 35.44234724 344.57278175 37.72063842 344.56878662 39.99893188 C344.55353649 45.98644834 344.51425947 51.9735748 344.4699707 57.9609375 C344.42900494 64.07416509 344.41077278 70.18745588 344.390625 76.30078125 C344.34776507 88.28923356 344.27952082 100.27739681 344.1953125 112.265625 C338.9153125 112.265625 333.6353125 112.265625 328.1953125 112.265625 C328.1953125 80.585625 328.1953125 48.905625 328.1953125 16.265625 C233.1553125 16.265625 138.1153125 16.265625 40.1953125 16.265625 C40.1953125 153.545625 40.1953125 290.825625 40.1953125 432.265625 C135.2353125 432.265625 230.2753125 432.265625 328.1953125 432.265625 C328.1953125 331.945625 328.1953125 231.625625 328.1953125 128.265625 C333.4753125 128.265625 338.7553125 128.265625 344.1953125 128.265625 C344.28653501 167.65563961 344.35733679 207.04563764 344.39957382 246.43573681 C344.40457673 251.08459946 344.40975401 255.73346189 344.41503906 260.38232422 C344.4160883 261.30784094 344.41713755 262.23335765 344.41821858 263.18692033 C344.43563054 278.17877433 344.46717259 293.17056707 344.50392368 308.1623847 C344.54131109 323.54187862 344.56354369 338.92134043 344.57166648 354.30087793 C344.57715882 363.79323172 344.59451469 373.28541236 344.62697837 382.77771287 C344.6480991 389.28424522 344.65451809 395.79068786 344.64931801 402.29725201 C344.64675241 406.05295834 344.6507243 409.80836177 344.6721344 413.56401443 C344.69517083 417.63464157 344.68727632 421.70462173 344.67633057 425.77529907 C344.68798193 426.964016 344.6996333 428.15273292 344.71163774 429.37747157 C344.66592421 435.64426725 344.48160031 439.54431599 340.1953125 444.265625 C335.97031127 447.75584341 333.58027649 448.4606237 328.1953125 448.265625 C328.21625977 449.09288086 328.23720703 449.92013672 328.25878906 450.77246094 C328.34192869 454.5200587 328.39396781 458.26746249 328.4453125 462.015625 C328.47882813 463.31757813 328.51234375 464.61953125 328.546875 465.9609375 C328.55976563 467.21132813 328.57265625 468.46171875 328.5859375 469.75 C328.60688477 470.90209961 328.62783203 472.05419922 328.64941406 473.24121094 C328.08528485 476.99843281 327.13424714 477.92783784 324.1953125 480.265625 C321.61523438 480.77355957 321.61523438 480.77355957 318.6640625 480.78320312 C317.55611328 480.79581177 316.44816406 480.80842041 315.30664062 480.82141113 C314.11490234 480.81331421 312.92316406 480.80521729 311.6953125 480.796875 C309.85356445 480.80261536 309.85356445 480.80261536 307.97460938 480.80847168 C305.37889791 480.81119342 302.78315914 480.80381411 300.1875 480.78710938 C296.21031651 480.76570575 292.23493968 480.78690463 288.2578125 480.8125 C285.73697517 480.80985677 283.21613897 480.80473191 280.6953125 480.796875 C279.50357422 480.80497192 278.31183594 480.81306885 277.08398438 480.82141113 C275.42206055 480.80249817 275.42206055 480.80249817 273.7265625 480.78320312 C272.75267578 480.78002075 271.77878906 480.77683838 270.77539062 480.77355957 C268.1953125 480.265625 268.1953125 480.265625 264.1953125 476.265625 C264.1953125 467.025625 264.1953125 457.785625 264.1953125 448.265625 C211.3953125 448.265625 158.5953125 448.265625 104.1953125 448.265625 C104.1953125 457.505625 104.1953125 466.745625 104.1953125 476.265625 C99.69417128 480.76676622 99.69417128 480.76676622 94.6640625 480.78320312 C93.55611328 480.79581177 92.44816406 480.80842041 91.30664062 480.82141113 C90.11490234 480.81331421 88.92316406 480.80521729 87.6953125 480.796875 C85.85356445 480.80261536 85.85356445 480.80261536 83.97460938 480.80847168 C81.37889791 480.81119342 78.78315914 480.80381411 76.1875 480.78710938 C72.21031651 480.76570575 68.23493968 480.78690463 64.2578125 480.8125 C61.73697517 480.80985677 59.21613897 480.80473191 56.6953125 480.796875 C55.50357422 480.80497192 54.31183594 480.81306885 53.08398438 480.82141113 C51.42206055 480.80249817 51.42206055 480.80249817 49.7265625 480.78320312 C48.75267578 480.78002075 47.77878906 480.77683838 46.77539062 480.77355957 C43.45169853 480.11923128 42.25593467 478.90671044 40.1953125 476.265625 C39.74121094 473.24121094 39.74121094 473.24121094 39.8046875 469.75 C39.81757813 468.49960937 39.83046875 467.24921875 39.84375 465.9609375 C39.87726563 464.65898437 39.91078125 463.35703125 39.9453125 462.015625 C39.96335937 460.69820313 39.98140625 459.38078125 40 458.0234375 C40.04714979 454.77010192 40.11295206 451.51822875 40.1953125 448.265625 C39.26847656 448.28882813 38.34164062 448.31203125 37.38671875 448.3359375 C34.1953125 448.265625 34.1953125 448.265625 31.1328125 447.140625 C28.27806145 445.95608389 28.27806145 445.95608389 25.93481445 447.18994141 C20.98865552 449.13208348 15.69583275 448.63748705 10.44018555 448.63623047 C8.39871964 448.64059102 6.3594417 448.67691366 4.31835938 448.71484375 C-4.46733989 448.74087545 -10.26871872 448.24052447 -17.046875 442.30078125 C-17.58570313 441.64980469 -18.12453125 440.99882812 -18.6796875 440.328125 C-19.23398438 439.67972656 -19.78828125 439.03132813 -20.359375 438.36328125 C-24.16395261 432.84150239 -24.08159725 427.82350517 -24.03173828 421.3347168 C-24.03203033 420.33912247 -24.03232239 419.34352814 -24.03262329 418.31776428 C-24.03123212 415.03336819 -24.01568073 411.74920012 -24 408.46484375 C-23.99626912 406.18512598 -23.9934225 403.9054066 -23.99142456 401.62568665 C-23.98379404 395.63007162 -23.96415043 389.63455374 -23.9420166 383.63897705 C-23.92154572 377.51909703 -23.91242018 371.39920128 -23.90234375 365.27929688 C-23.88090408 353.27469694 -23.84677505 341.27016905 -23.8046875 329.265625 C-18.5246875 329.265625 -13.2446875 329.265625 -7.8046875 329.265625 C-7.79660065 330.44468918 -7.78851379 331.62375336 -7.78018188 332.83854675 C-7.70271177 343.94777519 -7.61497013 355.05688129 -7.51716042 366.16594982 C-7.46720539 371.87729143 -7.42087512 377.5886146 -7.3828125 383.30004883 C-7.3459499 388.81144409 -7.29958699 394.3226849 -7.24662399 399.83394814 C-7.22808529 401.93705856 -7.21297539 404.04020208 -7.20134354 406.14336205 C-7.18447235 409.08816737 -7.15543474 412.03261938 -7.12353516 414.97729492 C-7.12137497 415.8476387 -7.11921478 416.71798248 -7.11698914 417.61470032 C-7.05776576 421.89176615 -6.9374574 425.43173322 -4.8046875 429.265625 C-0.75123559 431.73942286 3.57812861 431.56673774 8.1953125 431.515625 C8.89398438 431.52335937 9.59265625 431.53109375 10.3125 431.5390625 C14.33938477 431.52386671 17.717656 431.38801831 21.1953125 429.265625 C23.26598128 425.27466183 23.44580022 421.87073433 23.44699478 417.41740417 C23.44990166 416.73778346 23.45280854 416.05816275 23.45580351 415.35794747 C23.4631141 413.07602542 23.4561553 410.79437136 23.44927979 408.51245117 C23.4515838 406.86177781 23.45475992 405.21110548 23.45873427 403.5604353 C23.46709907 399.02072777 23.46294935 394.48110411 23.45676184 389.94139624 C23.45224524 385.04699473 23.45921717 380.15260785 23.46472168 375.25820923 C23.4736258 365.66858316 23.47168913 356.07898835 23.4658964 346.48936105 C23.46138392 338.69728097 23.46076521 330.90520967 23.46294403 323.11312866 C23.46340373 321.45109351 23.46340373 321.45109351 23.46387272 319.7554819 C23.46451215 317.50471822 23.46516058 315.25395455 23.4658179 313.00319088 C23.47152418 291.88618833 23.46495863 270.76920314 23.45421717 249.65220344 C23.44528139 231.52366079 23.44683335 213.39514375 23.45605469 195.26660156 C23.46675206 174.2263627 23.47097483 153.18613906 23.46483016 132.14589787 C23.46419305 129.90330569 23.46356431 127.66071352 23.46294403 125.41812134 C23.46263548 124.31465573 23.46232693 123.21119012 23.46200903 122.07428616 C23.46028049 114.28945977 23.46320061 106.50464301 23.46790314 98.71981812 C23.47350605 89.23574957 23.47200796 79.75171415 23.46134165 70.26764941 C23.45607699 65.4265897 23.4540417 60.58558524 23.46063995 55.74452591 C23.46658509 51.31574618 23.46334809 46.88707311 23.45268485 42.45830309 C23.45044472 40.85339547 23.45160079 39.24847889 23.45643643 37.64357698 C23.46249348 35.46687072 23.45630493 33.29053268 23.44699478 31.11384583 C23.44667008 29.90334973 23.44634537 28.69285364 23.44601083 27.44567585 C23.19583447 24.27224601 22.65637236 22.08164084 21.1953125 19.265625 C17.14186059 16.79182714 12.81249639 16.96451226 8.1953125 17.015625 C7.49664062 17.00789063 6.79796875 17.00015625 6.078125 16.9921875 C2.05124023 17.00738329 -1.327031 17.14323169 -4.8046875 19.265625 C-7.55842411 24.04538367 -7.09369829 29.23962606 -7.0831604 34.58564758 C-7.0889528 35.63530911 -7.0947452 36.68497064 -7.10071313 37.76644009 C-7.11773794 41.28874171 -7.12059181 44.81091249 -7.12353516 48.33325195 C-7.1328316 50.85612816 -7.14299985 53.37900128 -7.15397644 55.90187073 C-7.17565494 61.33605881 -7.1912594 66.77021051 -7.20134354 72.20443153 C-7.21593394 80.06137322 -7.24147177 87.91824937 -7.26967482 95.77515259 C-7.31513625 108.52269179 -7.35175374 121.27024043 -7.3828125 134.01782227 C-7.4130007 146.4003261 -7.44735221 158.78280685 -7.48730469 171.1652832 C-7.49099701 172.31031908 -7.49099701 172.31031908 -7.49476393 173.47848699 C-7.50713858 177.30805628 -7.5195951 181.13762531 -7.53209233 184.9671942 C-7.63565041 216.73330663 -7.72470957 248.49944418 -7.8046875 280.265625 C-13.0846875 280.265625 -18.3646875 280.265625 -23.8046875 280.265625 C-24.2996875 259.475625 -24.2996875 259.475625 -24.8046875 238.265625 C-33.50576241 234.48618107 -33.50576241 234.48618107 -42.21582031 230.72753906 C-43.30217773 230.25026367 -44.38853516 229.77298828 -45.5078125 229.28125 C-47.17312012 228.55856934 -47.17312012 228.55856934 -48.87207031 227.82128906 C-52.07115688 226.12427111 -53.67294915 225.20178761 -55.8046875 222.265625 C-56.41384283 218.83642808 -56.35070966 215.4359921 -56.32226562 211.9609375 C-56.3292749 210.91339294 -56.33628418 209.86584839 -56.34350586 208.78656006 C-56.36112305 205.32097939 -56.34944929 201.8562141 -56.3359375 198.390625 C-56.33863133 195.98453616 -56.34251283 193.57844839 -56.34753418 191.17236328 C-56.3534343 186.12847535 -56.34484935 181.08487066 -56.32617188 176.04101562 C-56.30338249 169.57086644 -56.31650276 163.10138093 -56.34046173 156.6312561 C-56.35490554 151.66246527 -56.35032013 146.69383217 -56.33995056 141.72503662 C-56.33727938 139.33917157 -56.34056672 136.95329226 -56.34986877 134.56744385 C-56.3600106 131.23468003 -56.34456511 127.90299577 -56.32226562 124.5703125 C-56.33036255 123.58109802 -56.33845947 122.59188354 -56.34680176 121.57269287 C-56.26463393 114.95480805 -56.26463393 114.95480805 -54.16589355 111.81005859 C-51.36309171 109.97678305 -48.58249689 108.584297 -45.5078125 107.25 C-44.30253906 106.72148438 -43.09726563 106.19296875 -41.85546875 105.6484375 C-40.5886296 105.10396202 -39.32170137 104.55969376 -38.0546875 104.015625 C-36.77175953 103.456591 -35.48920305 102.89670363 -34.20703125 102.3359375 C-31.07646827 100.97072959 -27.94238317 99.61433932 -24.8046875 98.265625 C-24.80104187 97.26861572 -24.79739624 96.27160645 -24.79364014 95.24438477 C-24.75662848 85.82835108 -24.69878851 76.41264258 -24.62078476 66.99685669 C-24.5813494 62.15658248 -24.54914161 57.31648913 -24.53369141 52.47607422 C-24.51849884 47.80093823 -24.48400724 43.12629958 -24.43637848 38.4513855 C-24.42159146 36.67174615 -24.41364803 34.89203578 -24.41280365 33.11233521 C-24.4104241 30.61081507 -24.38326695 28.11065844 -24.35058594 25.609375 C-24.3556163 24.88072739 -24.36064667 24.15207977 -24.36582947 23.40135193 C-24.2371019 16.99362607 -22.06770547 11.84807493 -17.83984375 7.0234375 C-17.18886719 6.48460937 -16.53789063 5.94578125 -15.8671875 5.390625 C-15.21878906 4.83632813 -14.57039063 4.28203125 -13.90234375 3.7109375 C-9.36181809 0.58245613 -5.46410857 0.01039227 0 0 Z M-39.8046875 124.265625 C-39.8046875 153.305625 -39.8046875 182.345625 -39.8046875 212.265625 C-32.077761 216.99652119 -32.077761 216.99652119 -23.8046875 219.265625 C-23.8046875 185.605625 -23.8046875 151.945625 -23.8046875 117.265625 C-29.6261039 117.265625 -34.52941811 121.80383262 -39.8046875 124.265625 Z M56.1953125 448.265625 C56.1953125 453.545625 56.1953125 458.825625 56.1953125 464.265625 C66.7553125 464.265625 77.3153125 464.265625 88.1953125 464.265625 C88.1953125 458.985625 88.1953125 453.705625 88.1953125 448.265625 C77.6353125 448.265625 67.0753125 448.265625 56.1953125 448.265625 Z M280.1953125 448.265625 C280.1953125 453.545625 280.1953125 458.825625 280.1953125 464.265625 C290.7553125 464.265625 301.3153125 464.265625 312.1953125 464.265625 C312.1953125 458.985625 312.1953125 453.705625 312.1953125 448.265625 C301.6353125 448.265625 291.0753125 448.265625 280.1953125 448.265625 Z " fill="#000000" transform="translate(111.8046875,15.734375)"/>
<path d="M0 0 C1.35776433 -0.00679667 1.35776433 -0.00679667 2.74295825 -0.01373065 C5.77674469 -0.02639316 8.81035204 -0.02475307 11.84416199 -0.02310181 C14.01908601 -0.02908591 16.19400791 -0.03589118 18.368927 -0.04345703 C24.27808187 -0.06113653 30.18717883 -0.06581325 36.09635758 -0.0670886 C41.0292372 -0.06898739 45.96210332 -0.07634473 50.89497775 -0.08343279 C62.53364507 -0.09972186 74.17228145 -0.10460128 85.81095886 -0.10317993 C97.81645344 -0.10197844 109.82174323 -0.12308076 121.82719499 -0.15466726 C132.13477512 -0.18082014 142.44229652 -0.19154763 152.74990958 -0.19026911 C158.90602827 -0.18975918 165.06198725 -0.19545984 171.21807289 -0.21662521 C177.00883801 -0.23599071 182.79929077 -0.23614337 188.59006691 -0.22159195 C190.71367855 -0.21950066 192.83730965 -0.22422376 194.96088791 -0.23631287 C197.86369618 -0.25176574 200.76542754 -0.24245658 203.66821289 -0.22705078 C204.50529008 -0.23733791 205.34236727 -0.24762503 206.20481044 -0.25822389 C212.9627025 -0.17916055 218.15925261 1.7565185 223.26676941 6.23226929 C223.80559753 6.88324585 224.34442566 7.53422241 224.89958191 8.20492554 C225.45387878 8.85332397 226.00817566 9.50172241 226.57926941 10.16976929 C229.5328717 14.45648396 230.27497176 18.16542708 230.28185081 23.3263979 C230.28829971 24.550608 230.2947486 25.7748181 230.30139291 27.03612548 C230.29845075 28.39149028 230.29531532 29.74685467 230.29200745 31.10221863 C230.29574417 32.54451491 230.30034578 33.98680917 230.30573809 35.42910022 C230.31798083 39.39293261 230.31770613 43.35668068 230.31534934 47.32052767 C230.3149415 51.59535629 230.32597723 55.87015776 230.33546448 60.14497375 C230.35208245 68.52039575 230.35757438 76.89578959 230.35868923 85.27122668 C230.35963933 92.07882385 230.36374772 98.88641173 230.37009048 105.69400597 C230.38770509 124.99207958 230.39692902 144.29013094 230.39542954 163.58821265 C230.39534962 164.62873229 230.39526971 165.66925194 230.39518738 166.74130249 C230.39510562 167.78309167 230.39502386 168.82488085 230.39493962 169.8982394 C230.39412666 186.78312243 230.41326617 203.66791628 230.44146411 220.55277351 C230.47018484 237.88736703 230.48400485 255.22191703 230.48227656 272.55653495 C230.48161238 282.2896744 230.48711708 292.02272036 230.50863266 301.75583839 C230.52683378 310.04273626 230.5312006 318.32949824 230.51761381 326.61640743 C230.51107874 330.84425972 230.5109863 335.07185124 230.52832031 339.2996788 C230.54403245 343.17175929 230.54120674 347.04337182 230.52375205 350.91544076 C230.52067802 352.31448434 230.5243298 353.71356267 230.5354722 355.11256526 C230.6021959 364.08611635 230.17318916 370.53322959 224.05973816 377.50961304 C223.4087616 378.04844116 222.75778503 378.58726929 222.08708191 379.14242554 C221.43868347 379.69672241 220.79028503 380.25101929 220.12223816 380.82211304 C214.88047628 384.4337553 210.20806692 384.55745841 204.04916382 384.53485107 C202.69139949 384.54164774 202.69139949 384.54164774 201.30620557 384.54858172 C198.27241913 384.56124423 195.23881178 384.55960414 192.20500183 384.55795288 C190.03007781 384.56393698 187.85515591 384.57074225 185.68023682 384.57830811 C179.77108195 384.59598761 173.86198499 384.60066432 167.95280623 384.60193968 C163.01992662 384.60383847 158.08706049 384.6111958 153.15418607 384.61828387 C141.51551875 384.63457294 129.87688237 384.63945236 118.23820496 384.63803101 C106.23271037 384.63682951 94.22742059 384.65793184 82.22196883 384.68951833 C71.91438869 384.71567122 61.6068673 384.72639871 51.29925424 384.72512019 C45.14313555 384.72461025 38.98717657 384.73031092 32.83109093 384.75147629 C27.04032581 384.77084179 21.24987304 384.77099445 15.45909691 384.75644302 C13.33548527 384.75435173 11.21185417 384.75907483 9.08827591 384.77116394 C6.18546763 384.78661681 3.28373628 384.77730765 0.38095093 384.76190186 C-0.45612626 384.77218898 -1.29320346 384.78247611 -2.15564662 384.79307497 C-8.91353868 384.71401163 -14.11008879 382.77833257 -19.21760559 378.30258179 C-19.75643372 377.65160522 -20.29526184 377.00062866 -20.85041809 376.32992554 C-21.40471497 375.6815271 -21.95901184 375.03312866 -22.53010559 374.36508179 C-25.48370788 370.07836711 -26.22580794 366.36942399 -26.232687 361.20845318 C-26.23913589 359.98424308 -26.24558478 358.76003297 -26.25222909 357.49872559 C-26.24928693 356.14336079 -26.2461515 354.7879964 -26.24284363 353.43263245 C-26.24658035 351.99033616 -26.25118196 350.5480419 -26.25657427 349.10575086 C-26.26881701 345.14191847 -26.26854231 341.17817039 -26.26618552 337.2143234 C-26.26577768 332.93949478 -26.27681342 328.66469331 -26.28630066 324.38987732 C-26.30291863 316.01445533 -26.30841057 307.63906149 -26.30952542 299.26362439 C-26.31047551 292.45602722 -26.3145839 285.64843934 -26.32092667 278.84084511 C-26.33854128 259.5427715 -26.3477652 240.24472014 -26.34626572 220.94663843 C-26.34618581 219.90611878 -26.34610589 218.86559913 -26.34602356 217.79354858 C-26.3459418 216.7517594 -26.34586004 215.70997023 -26.3457758 214.63661168 C-26.34496284 197.75172864 -26.36410235 180.8669348 -26.39230029 163.98207756 C-26.42102102 146.64748405 -26.43484103 129.31293404 -26.43311274 111.97831613 C-26.43244856 102.24517667 -26.43795327 92.51213072 -26.45946884 82.77901268 C-26.47766996 74.49211481 -26.48203678 66.20535283 -26.46844999 57.91844364 C-26.46191492 53.69059135 -26.46182248 49.46299984 -26.47915649 45.23517227 C-26.49486863 41.36309179 -26.49204292 37.49147925 -26.47458823 33.61941031 C-26.4715142 32.22036674 -26.47516598 30.8212884 -26.48630838 29.42228582 C-26.55303208 20.44873473 -26.12402534 14.00162148 -20.01057434 7.02523804 C-19.35959778 6.48640991 -18.70862122 5.94758179 -18.03791809 5.39242554 C-17.38951965 4.83812866 -16.74112122 4.28383179 -16.07307434 3.71273804 C-10.83131246 0.10109577 -6.1589031 -0.02260734 0 0 Z M-7.97541809 19.26742554 C-19.49119105 48.05685793 -9.97541809 81.26025791 -9.97541809 112.26742554 C63.94458191 112.26742554 137.86458191 112.26742554 214.02458191 112.26742554 C219.53449552 63.61260941 219.53449552 63.61260941 211.02458191 18.26742554 C206.88958146 15.66507413 202.30954982 15.98406089 197.56719971 16.00672913 C196.29307328 16.00099081 196.29307328 16.00099081 194.99320692 15.99513656 C192.14821485 15.98482142 189.30342515 15.98879589 186.4584198 15.99276733 C184.41818047 15.98842005 182.37794278 15.98323685 180.33770752 15.97727966 C174.79643677 15.96388053 169.25523419 15.96331199 163.7139504 15.96584296 C159.08906359 15.966912 154.46419062 15.96203106 149.83930677 15.95723754 C138.92945634 15.94613931 128.01964034 15.94570681 117.10978699 15.95175171 C105.8518234 15.95779352 94.59398473 15.94547589 83.33604246 15.92418164 C73.67222549 15.90657422 64.00844831 15.9005629 54.34461588 15.90381938 C48.57200534 15.90563366 42.79948392 15.90298152 37.02688789 15.88910484 C31.59894637 15.87654506 26.17119981 15.87845315 20.74326134 15.89151573 C18.75104329 15.89388505 16.7588116 15.89113416 14.76660919 15.88289261 C12.04716157 15.8724536 9.32837161 15.88050294 6.60894775 15.89320374 C5.42630336 15.88214231 5.42630336 15.88214231 4.21976715 15.87085742 C-0.57222905 15.917944 -4.00364496 16.52220386 -7.97541809 19.26742554 Z M-9.97541809 128.26742554 C-9.97541809 170.50742554 -9.97541809 212.74742554 -9.97541809 256.26742554 C-3.70541809 256.26742554 2.56458191 256.26742554 9.02458191 256.26742554 C8.36458191 253.62742554 7.70458191 250.98742554 7.02458191 248.26742554 C6.07540642 237.16427967 6.7803583 227.71590804 13.52458191 218.51742554 C19.38595561 212.27121417 28.08390513 208.52988271 36.58708191 208.16195679 C45.12963384 208.53158644 53.08516139 210.72194707 59.52458191 216.51742554 C60.01958191 217.09492554 60.51458191 217.67242554 61.02458191 218.26742554 C64.40578521 216.77969608 67.1499271 214.73872122 70.04801941 212.48617554 C77.70028151 207.76778468 88.50210973 207.96095833 97.07926941 209.99008179 C106.42428797 213.49801429 111.63397729 219.47191466 116.02458191 228.26742554 C117.39115395 232.06617043 117.20837348 236.02716075 117.21208191 240.01742554 C117.224328 240.69547241 117.2365741 241.37351929 117.24919128 242.07211304 C117.25112488 242.75015991 117.25305847 243.42820679 117.25505066 244.12680054 C117.25915955 244.72975952 117.26326843 245.33271851 117.26750183 245.95394897 C116.90010502 249.45289588 115.87786656 252.85428693 115.02458191 256.26742554 C121.29458191 256.26742554 127.56458191 256.26742554 134.02458191 256.26742554 C134.01821716 254.52316284 134.01185242 252.77890015 134.0052948 250.98178101 C133.99234184 245.16217499 134.01203467 239.34314831 134.05304813 233.52371025 C134.07671405 230.00162558 134.08803281 226.48047793 134.06925964 222.95834351 C133.93928852 195.72899308 133.93928852 195.72899308 140.45011902 185.41000366 C143.66789322 178.98742814 142.90023221 171.61709925 142.77458191 164.57992554 C142.75577058 162.27939688 142.74708165 159.97968727 142.75486755 157.67909241 C142.75873878 155.62163592 142.73193046 153.56418831 142.70329285 151.50692749 C143.02458191 148.26742554 143.02458191 148.26742554 144.29685974 146.58921814 C147.36271196 144.2436901 151.25040492 144.84247229 154.96208191 144.86898804 C155.83856384 144.86611786 156.71504578 144.86324768 157.61808777 144.86029053 C159.47071478 144.85824955 161.32336333 144.86378176 163.1759491 144.87631226 C166.0140037 144.8923657 168.85063418 144.87646499 171.68864441 144.85726929 C173.48812672 144.85925171 175.28760815 144.86309538 177.08708191 144.86898804 C177.93713806 144.86291534 178.78719421 144.85684265 179.66300964 144.85058594 C185.57207639 144.92123651 185.57207639 144.92123651 187.75230408 146.58921814 C189.8520405 149.35889086 189.33757173 152.10312605 189.29020691 155.50570679 C189.29298393 156.9816208 189.29693074 158.45753299 189.30192566 159.93344116 C189.29366651 162.23944387 189.27522262 164.54404164 189.23405457 166.84970093 C189.11142174 175.03144327 189.026294 181.33246113 193.51286316 188.44320679 C199.68540274 199.36343056 198.03389272 212.82926114 197.96879578 225.04244995 C197.95751968 228.56940719 197.98605394 232.0960394 198.01091003 235.62289429 C198.05370821 242.50467057 198.04969355 249.38556464 198.02458191 256.26742554 C203.30458191 256.26742554 208.58458191 256.26742554 214.02458191 256.26742554 C214.02458191 214.02742554 214.02458191 171.78742554 214.02458191 128.26742554 C140.10458191 128.26742554 66.18458191 128.26742554 -9.97541809 128.26742554 Z M158.02458191 160.26742554 C158.03360535 162.12625366 158.04262878 163.98508179 158.05192566 165.90023804 C158.02375931 168.3976546 157.99371027 170.89505042 157.96208191 173.39242554 C157.97303894 174.6105896 157.98399597 175.82875366 157.99528503 177.08383179 C157.8670781 184.00700637 157.15534425 188.5346181 153.49333191 194.45492554 C147.49947618 205.3284976 149.29589562 218.09469092 149.58708191 230.14242554 C149.62225145 232.68014276 149.65418044 235.21790707 149.68278503 237.75570679 C149.75334173 243.92840935 149.89038746 250.09448091 150.02458191 256.26742554 C160.58458191 256.26742554 171.14458191 256.26742554 182.02458191 256.26742554 C182.18623476 248.83139418 182.32528469 241.4015751 182.40910339 233.96517944 C182.44407796 231.44153062 182.491675 228.91802125 182.55265808 226.39486694 C183.23896302 208.02720588 183.23896302 208.02720588 176.62980652 191.34115601 C173.6707586 185.67508554 174.03072369 179.65813341 174.08708191 173.39242554 C174.07096863 172.12012085 174.05485535 170.84781616 174.03825378 169.53695679 C174.0034081 166.44730617 174.00958283 163.35723624 174.02458191 160.26742554 C168.74458191 160.26742554 163.46458191 160.26742554 158.02458191 160.26742554 Z M24.64958191 231.89242554 C22.44550298 236.47012793 22.227418 240.27294965 23.02458191 245.26742554 C25.35427122 250.10601102 28.18599643 252.93773623 33.02458191 255.26742554 C38.0190578 256.06458944 41.82187952 255.84650447 46.39958191 253.64242554 C49.98365904 250.39968908 52.61993432 247.80266657 53.40739441 242.86898804 C53.6634211 237.1851956 52.96085122 233.61803899 49.02458191 229.26742554 C44.67396846 225.33115622 41.10681185 224.62858635 35.42301941 224.88461304 C30.48934087 225.67207313 27.89231836 228.3083484 24.64958191 231.89242554 Z M72.64958191 231.89242554 C70.44550298 236.47012793 70.227418 240.27294965 71.02458191 245.26742554 C73.35427122 250.10601102 76.18599643 252.93773623 81.02458191 255.26742554 C86.0190578 256.06458944 89.82187952 255.84650447 94.39958191 253.64242554 C97.98365904 250.39968908 100.61993432 247.80266657 101.40739441 242.86898804 C101.6634211 237.1851956 100.96085122 233.61803899 97.02458191 229.26742554 C92.67396846 225.33115622 89.10681185 224.62858635 83.42301941 224.88461304 C78.48934087 225.67207313 75.89231836 228.3083484 72.64958191 231.89242554 Z M-9.97541809 272.26742554 C-15.48533171 320.92224167 -15.48533171 320.92224167 -6.97541809 366.26742554 C-2.84041764 368.86977695 1.739614 368.55079019 6.48196411 368.52812195 C7.75609054 368.53386027 7.75609054 368.53386027 9.0559569 368.53971452 C11.90094897 368.55002965 14.74573866 368.54605519 17.59074402 368.54208374 C19.63098335 368.54643102 21.67122104 368.55161422 23.7114563 368.55757141 C29.25272705 368.57097054 34.79392963 368.57153908 40.33521342 368.56900811 C44.96010023 368.56793908 49.5849732 368.57282001 54.20985705 368.57761353 C65.11970748 368.58871176 76.02952348 368.58914426 86.93937683 368.58309937 C98.19734042 368.57705755 109.45517908 368.58937518 120.71312135 368.61066943 C130.37693833 368.62827685 140.04071551 368.63428817 149.70454794 368.63103169 C155.47715848 368.62921741 161.2496799 368.63186956 167.02227592 368.64574623 C172.45021745 368.65830601 177.87796401 368.65639792 183.30590248 368.64333534 C185.29812053 368.64096603 187.29035222 368.64371691 189.28255463 368.65195847 C192.00200225 368.66239748 194.72079221 368.65434814 197.44021606 368.64164734 C198.62286046 368.65270877 198.62286046 368.65270877 199.82939667 368.66399366 C204.62139287 368.61690707 208.05280878 368.01264722 212.02458191 365.26742554 C223.54035487 336.47799314 214.02458191 303.27459317 214.02458191 272.26742554 C140.10458191 272.26742554 66.18458191 272.26742554 -9.97541809 272.26742554 Z " fill="#000000" transform="translate(193.9754180908203,47.732574462890625)"/>
<path d="M0 0 C1.00853027 -0.00700928 2.01706055 -0.01401855 3.05615234 -0.02124023 C6.39188114 -0.03885406 9.72676248 -0.02718497 13.0625 -0.01367188 C15.37890791 -0.0163658 17.69531472 -0.02024739 20.01171875 -0.02526855 C24.86729698 -0.03116822 29.72258096 -0.02258526 34.578125 -0.00390625 C40.80614646 0.01888316 47.03347845 0.00576265 53.26147461 -0.01819611 C58.04497485 -0.0326412 62.82831127 -0.02805393 67.61181641 -0.01768494 C69.90836671 -0.0150141 72.20493183 -0.01829988 74.50146484 -0.02760315 C77.7097114 -0.03774714 80.91683706 -0.02229671 84.125 0 C85.55271729 -0.01214539 85.55271729 -0.01214539 87.00927734 -0.02453613 C93.39320111 0.05777639 93.39320111 0.05777639 96.65124512 2.29602051 C98.14995737 4.65525105 98.56733057 5.81756917 98.58007812 8.58007812 C98.59268677 9.36769531 98.60529541 10.1553125 98.61828613 10.96679688 C98.61018921 11.80855469 98.60209229 12.6503125 98.59375 13.51757812 C98.59949036 14.82662109 98.59949036 14.82662109 98.60534668 16.16210938 C98.6080649 18.00456905 98.60070994 19.84706737 98.58398438 21.68945312 C98.56257248 24.50803746 98.58378801 27.32407297 98.609375 30.14257812 C98.60673171 31.93425041 98.60160669 33.72592111 98.59375 35.51757812 C98.60184692 36.35933594 98.60994385 37.20109375 98.61828613 38.06835938 C98.60567749 38.85597656 98.59306885 39.64359375 98.58007812 40.45507812 C98.57689575 41.14472656 98.57371338 41.834375 98.57043457 42.54492188 C97.76530425 45.67179186 96.73943632 46.67854925 94.0625 48.51757812 C90.75288099 49.11569435 87.48056152 49.06370153 84.125 49.03515625 C83.11646973 49.04216553 82.10793945 49.0491748 81.06884766 49.05639648 C77.73311886 49.07401031 74.39823752 49.06234122 71.0625 49.04882812 C68.74609209 49.05152205 66.42968528 49.05540364 64.11328125 49.0604248 C59.25770302 49.06632447 54.40241904 49.05774151 49.546875 49.0390625 C43.31885354 49.01627309 37.09152155 49.0293936 30.86352539 49.05335236 C26.08002515 49.06779745 21.29668873 49.06321018 16.51318359 49.05284119 C14.21663329 49.05017035 11.92006817 49.05345613 9.62353516 49.0627594 C6.4152886 49.07290339 3.20816294 49.05745296 0 49.03515625 C-0.95181152 49.04325317 -1.90362305 49.0513501 -2.88427734 49.05969238 C-9.26820111 48.97737986 -9.26820111 48.97737986 -12.52624512 46.73913574 C-14.02495737 44.3799052 -14.44233057 43.21758708 -14.45507812 40.45507812 C-14.46768677 39.66746094 -14.48029541 38.87984375 -14.49328613 38.06835938 C-14.48518921 37.22660156 -14.47709229 36.38484375 -14.46875 35.51757812 C-14.4725769 34.64488281 -14.47640381 33.7721875 -14.48034668 32.87304688 C-14.4830649 31.0305872 -14.47570994 29.18808888 -14.45898438 27.34570312 C-14.43757248 24.52711879 -14.45878801 21.71108328 -14.484375 18.89257812 C-14.48173171 17.10090584 -14.47660669 15.30923514 -14.46875 13.51757812 C-14.47684692 12.67582031 -14.48494385 11.8340625 -14.49328613 10.96679688 C-14.48067749 10.17917969 -14.46806885 9.3915625 -14.45507812 8.58007812 C-14.45189575 7.89042969 -14.44871338 7.20078125 -14.44543457 6.49023438 C-12.56450178 -0.81471008 -6.18642004 -0.05262699 0 0 Z M2.0625 16.51757812 C2.0625 21.79757812 2.0625 27.07757813 2.0625 32.51757812 C28.4625 32.51757812 54.8625 32.51757812 82.0625 32.51757812 C82.0625 27.23757813 82.0625 21.95757812 82.0625 16.51757812 C55.6625 16.51757812 29.2625 16.51757812 2.0625 16.51757812 Z " fill="#000000" transform="translate(253.9375,335.482421875)"/>
<path d="M0 0 C15.84 0 31.68 0 48 0 C48 5.28 48 10.56 48 16 C32.16 16 16.32 16 0 16 C0 10.72 0 5.44 0 0 Z " fill="#000000" transform="translate(272,88)"/>
<path d="M0 0 C5.28 0 10.56 0 16 0 C16 5.94 16 11.88 16 18 C10.72 18 5.44 18 0 18 C0 12.06 0 6.12 0 0 Z " fill="#000000" transform="translate(88,312)"/>
</svg>
